<?xml version="1.0" encoding="UTF-8"?>
<svg id="Layer_1" data-name="Layer 1" xmlns="http://www.w3.org/2000/svg" viewBox="0 0 553.78 117.76">
  <defs>
    <style>
      .cls-1 {
        fill: #fff;
      }
    </style>
  </defs>
  <path class="cls-1" d="M24.82,64.53h-5.31c-1.21,0-1.57-.36-1.57-1.57v-6.82c0-1.21.36-1.57,1.57-1.57h14.85c1.21,0,1.57.36,1.57,1.57v17.15c0,3.99-1.93,7.19-7.73,7.19H7.73c-5.8,0-7.73-3.2-7.73-7.19v-28.8c0-3.98,1.93-7.18,7.73-7.18h20.47c5.8,0,7.73,3.2,7.73,7.18v2.66c0,1.27-.3,1.63-1.57,1.87l-7.97,1.51c-1.21.24-1.57-.06-1.57-1.27v-1.99h-13.46v23.25h13.46v-5.98h0Z"/>
  <path class="cls-1" d="M68.23,80.47c-1.27,0-1.69-.3-2.05-1.51l-1.75-5.37h-13.28l-1.75,5.37c-.36,1.21-.78,1.51-2.05,1.51h-7.73c-1.21,0-1.45-.36-1.09-1.51l13.77-40.15c.36-1.21.79-1.51,2.05-1.51h7.49c1.27,0,1.69.3,2.11,1.51l13.89,40.15c.42,1.15.18,1.51-1.03,1.51h-8.57ZM59.11,56.68l-1.27-4.29h-.06l-1.27,4.29-2.17,7.06h6.88l-2.11-7.06h0Z"/>
  <path class="cls-1" d="M114.6,59.15h-.06l-8.03,14.25c-.66,1.15-1.09,1.39-2.35,1.39h-1.33c-1.27,0-1.69-.24-2.29-1.39l-7.49-14.25h-.06v19.74c0,1.21-.36,1.57-1.57,1.57h-7.85c-1.27,0-1.57-.3-1.57-1.57v-40.03c0-1.21.36-1.57,1.57-1.57h7.97c1.27,0,1.69.24,2.29,1.39l10.08,19.26,10.39-19.26c.6-1.15,1.03-1.39,2.29-1.39h7.43c1.21,0,1.57.36,1.57,1.57v40.03c0,1.21-.36,1.57-1.57,1.57h-7.85c-1.21,0-1.57-.36-1.57-1.57v-19.74h0Z"/>
  <path class="cls-1" d="M162.05,78.9c0,1.21-.36,1.57-1.57,1.57h-25.96c-1.21,0-1.57-.36-1.57-1.57v-40.03c0-1.21.36-1.57,1.57-1.57h25.06c1.21,0,1.57.36,1.57,1.57v6.82c0,1.21-.36,1.57-1.57,1.57h-15.28v6.34h9.54c1.21,0,1.57.36,1.57,1.57v7c0,1.21-.36,1.57-1.57,1.57h-9.54v6.76h16.18c1.21,0,1.57.36,1.57,1.57v6.82h0Z"/>
  <path class="cls-1" d="M216.99,44.48v28.8c0,3.99-1.93,7.19-7.73,7.19h-21.07c-5.8,0-7.73-3.2-7.73-7.19v-28.8c0-3.98,1.93-7.18,7.73-7.18h21.07c5.8,0,7.73,3.2,7.73,7.18h0ZM205.64,70.5v-23.25h-13.83v23.25h13.83Z"/>
  <path class="cls-1" d="M247.24,38.81c.36-1.21.78-1.51,2.05-1.51h8.09c1.21,0,1.45.36,1.09,1.51l-13.22,40.15c-.36,1.21-.79,1.51-2.05,1.51h-7c-1.27,0-1.69-.3-2.05-1.51l-13.83-40.15c-.36-1.15-.12-1.51,1.09-1.51h8.69c1.27,0,1.63.3,2.05,1.51l7.91,22.88h.06l7.12-22.88h0Z"/>
  <path class="cls-1" d="M291.8,78.9c0,1.21-.36,1.57-1.57,1.57h-25.96c-1.21,0-1.57-.36-1.57-1.57v-40.03c0-1.21.36-1.57,1.57-1.57h25.06c1.21,0,1.57.36,1.57,1.57v6.82c0,1.21-.36,1.57-1.57,1.57h-15.28v6.34h9.54c1.21,0,1.57.36,1.57,1.57v7c0,1.21-.36,1.57-1.57,1.57h-9.54v6.76h16.18c1.21,0,1.57.36,1.57,1.57v6.82h0Z"/>
  <path class="cls-1" d="M296.75,38.86c0-1.21.36-1.57,1.57-1.57h24.21c5.8,0,7.73,3.2,7.73,7.18v13.34c0,3.98-1.93,7.12-7.73,7.12h-.24l9.84,14.25c.66.91.42,1.27-.67,1.27h-9.96c-1.27,0-1.75-.24-2.42-1.33l-9.36-14.19h-1.63v13.95c0,1.21-.36,1.57-1.57,1.57h-8.21c-1.21,0-1.57-.36-1.57-1.57v-40.03h0ZM308.1,47.26v7.73h8.82c1.09,0,1.99-.91,1.99-1.99v-3.74c0-1.09-.91-1.99-1.99-1.99h-8.82Z"/>
  <path class="cls-1" d="M362.74,37.3c1.21,0,1.57.36,1.57,1.57v40.03c0,1.21-.36,1.57-1.57,1.57h-8.21c-1.21,0-1.57-.36-1.57-1.57v-40.03c0-1.21.36-1.57,1.57-1.57h8.21Z"/>
  <path class="cls-1" d="M381.28,68.51c0,1.09.91,1.99,1.99,1.99h7.73c1.09,0,1.99-.91,1.99-1.99v-1.87c0-2.05-.66-2.6-2.9-2.72l-10.99-.48c-5.8-.24-7.73-3.2-7.73-7.19v-11.77c0-3.98,1.93-7.18,7.73-7.18h17.21c5.8,0,7.73,3.2,7.73,7.18v2.42c0,1.27-.3,1.63-1.57,1.87l-7.97,1.57c-1.21.24-1.57-.06-1.57-1.27,0-.9-.91-1.81-1.99-1.81h-6.22c-1.09,0-1.99.91-1.99,1.99v1.03c0,2.17.79,2.72,2.9,2.84l11.05.48c5.8.24,7.73,3.26,7.73,7.25v12.44c0,3.99-1.93,7.19-7.73,7.19h-18.78c-5.8,0-7.73-3.2-7.73-7.19v-2.78c0-1.27.3-1.63,1.57-1.87l7.97-1.57c1.21-.24,1.57.06,1.57,1.27v.18h0Z"/>
  <path class="cls-1" d="M410.86,38.86c0-1.21.36-1.57,1.57-1.57h24.21c5.8,0,7.73,3.2,7.73,7.18v13.34c0,3.99-1.93,7.13-7.73,7.13h-.24l9.84,14.25c.66.91.42,1.27-.66,1.27h-9.96c-1.27,0-1.75-.24-2.41-1.33l-9.36-14.19h-1.63v13.95c0,1.21-.36,1.57-1.57,1.57h-8.21c-1.21,0-1.57-.36-1.57-1.57v-40.03h0ZM422.22,47.26v7.73h8.82c1.09,0,1.99-.91,1.99-1.99v-3.74c0-1.09-.91-1.99-1.99-1.99h-8.82Z"/>
  <path class="cls-1" d="M477.46,80.47c-1.27,0-1.69-.3-2.05-1.51l-1.75-5.37h-13.29l-1.75,5.37c-.36,1.21-.79,1.51-2.05,1.51h-7.73c-1.21,0-1.45-.36-1.09-1.51l13.77-40.15c.36-1.21.79-1.51,2.05-1.51h7.49c1.27,0,1.69.3,2.11,1.51l13.89,40.15c.42,1.15.18,1.51-1.03,1.51h-8.57ZM468.34,56.68l-1.27-4.29h-.06l-1.27,4.29-2.17,7.07h6.88l-2.11-7.07h0Z"/>
  <path class="cls-1" d="M520.33,78.9c0,1.21-.36,1.57-1.57,1.57h-25.96c-1.21,0-1.57-.36-1.57-1.57v-40.03c0-1.21.36-1.57,1.57-1.57h25.06c1.21,0,1.57.36,1.57,1.57v6.82c0,1.21-.36,1.57-1.57,1.57h-15.28v6.34h9.54c1.21,0,1.57.36,1.57,1.57v7c0,1.21-.36,1.57-1.57,1.57h-9.54v6.76h16.18c1.21,0,1.57.36,1.57,1.57v6.82h0Z"/>
  <path class="cls-1" d="M553.78,78.9c0,1.21-.36,1.57-1.57,1.57h-25.36c-1.21,0-1.57-.36-1.57-1.57v-40.03c0-1.21.36-1.57,1.57-1.57h8.21c1.21,0,1.57.36,1.57,1.57v31.64h15.58c1.21,0,1.57.36,1.57,1.57v6.82h0Z"/>
  <path class="cls-1" d="M552.01,99.12H1.77c-.98,0-1.77.79-1.77,1.77v15.1c0,.98.79,1.77,1.77,1.77h550.23c.98,0,1.77-.79,1.77-1.77v-15.1c0-.98-.79-1.77-1.77-1.77h0Z"/>
  <path class="cls-1" d="M552.01,0H1.77C.79,0,0,.79,0,1.77v15.1c0,.98.79,1.77,1.77,1.77h550.23c.98,0,1.77-.79,1.77-1.77V1.77C553.78.79,552.99,0,552.01,0h0Z"/>
</svg>